<svg width="1600" height="980" viewBox="0 0 1600 980" fill="none" xmlns="http://www.w3.org/2000/svg">
  <rect width="1600" height="980" rx="48" fill="#08111A"/>
  <rect x="24" y="24" width="1552" height="932" rx="36" fill="url(#bg)" stroke="#CCA866" stroke-opacity="0.18" stroke-width="2"/>

  <text x="86" y="118" fill="#F7F1E5" font-family="SF Pro Display, Arial, sans-serif" font-size="52" font-weight="700">PaperMaster</text>
  <text x="86" y="162" fill="#C9B48C" font-family="SF Pro Text, Arial, sans-serif" font-size="24">Hot Papers discovery and one-click import inside the app</text>

  <g transform="translate(72 210)">
    <rect width="1456" height="666" rx="30" fill="#122131" stroke="#CCA866" stroke-opacity="0.18" stroke-width="2"/>
    <circle cx="34" cy="34" r="8" fill="#B84C43"/>
    <circle cx="60" cy="34" r="8" fill="#CCA866"/>
    <circle cx="86" cy="34" r="8" fill="#456853"/>
    <text x="126" y="45" fill="#F7F1E5" font-family="SF Pro Display, Arial, sans-serif" font-size="28" font-weight="600">Hot Papers</text>

    <rect x="30" y="92" width="1396" height="544" rx="28" fill="url(#panel)"/>

    <text x="58" y="146" fill="#F7F1E5" font-family="SF Pro Display, Arial, sans-serif" font-size="40" font-weight="700">Hot Papers</text>
    <text x="58" y="182" fill="#C9B48C" font-family="SF Pro Text, Arial, sans-serif" font-size="20">Fresh submissions from the core machine learning feed.</text>

    <rect x="1200" y="126" width="160" height="42" rx="21" fill="#1B2F42" stroke="#CCA866" stroke-opacity="0.20" stroke-width="2"/>
    <text x="1247" y="153" fill="#F7F1E5" font-family="SF Pro Text, Arial, sans-serif" font-size="18" font-weight="600">Refresh</text>

    <g transform="translate(58 214)">
      <rect width="196" height="38" rx="19" fill="#CC8F2B"/>
      <text x="36" y="24" fill="#08111A" font-family="SF Pro Text, Arial, sans-serif" font-size="16" font-weight="700">Machine Learning</text>

      <rect x="214" width="184" height="38" rx="19" fill="#1B2F42"/>
      <text x="266" y="24" fill="#C9B48C" font-family="SF Pro Text, Arial, sans-serif" font-size="16" font-weight="600">Language Models</text>

      <rect x="416" width="182" height="38" rx="19" fill="#1B2F42"/>
      <text x="466" y="24" fill="#C9B48C" font-family="SF Pro Text, Arial, sans-serif" font-size="16" font-weight="600">Computer Vision</text>

      <rect x="616" width="92" height="38" rx="19" fill="#1B2F42"/>
      <text x="649" y="24" fill="#C9B48C" font-family="SF Pro Text, Arial, sans-serif" font-size="16" font-weight="600">AI</text>
    </g>

    <g transform="translate(58 286)">
      <rect width="1340" height="138" rx="24" fill="#F7F1E5" fill-opacity="0.08" stroke="#CC8F2B" stroke-opacity="0.16"/>

      <text x="22" y="36" fill="#F7F1E5" font-family="SF Pro Text, Arial, sans-serif" font-size="28" font-weight="700">Sparse Planning for Long-Horizon Policy Adaptation</text>
      <text x="22" y="66" fill="#9FB1C3" font-family="SF Pro Text, Arial, sans-serif" font-size="16">A. Chen, R. Mehta, L. Zhou</text>

      <rect x="1138" y="18" width="146" height="34" rx="17" fill="#CC8F2B" fill-opacity="0.14"/>
      <text x="1172" y="40" fill="#EAB308" font-family="SF Pro Text, Arial, sans-serif" font-size="15" font-weight="700">Very hot 91</text>
      <text x="1178" y="74" fill="#9FB1C3" font-family="SF Pro Text, Arial, sans-serif" font-size="13">Published 9h ago</text>

      <rect x="22" y="84" width="146" height="28" rx="14" fill="#1B2F42"/>
      <text x="58" y="103" fill="#C9B48C" font-family="SF Pro Text, Arial, sans-serif" font-size="13" font-weight="600">Machine Learning</text>
      <rect x="178" y="84" width="104" height="28" rx="14" fill="#1B2F42"/>
      <text x="203" y="103" fill="#C9B48C" font-family="SF Pro Text, Arial, sans-serif" font-size="13" font-weight="600">New this week</text>
      <rect x="292" y="84" width="112" height="28" rx="14" fill="#1B2F42"/>
      <text x="320" y="103" fill="#C9B48C" font-family="SF Pro Text, Arial, sans-serif" font-size="13" font-weight="600">2x library match</text>

      <text x="438" y="90" fill="#D7DEE7" font-family="SF Pro Text, Arial, sans-serif" font-size="14">
        <tspan x="438" dy="0">Skim a concise abstract, see why it matches your current library,</tspan>
        <tspan x="438" dy="20">then import it directly without opening another tool.</tspan>
      </text>

      <rect x="1032" y="90" width="106" height="32" rx="16" fill="#CC8F2B"/>
      <text x="1066" y="111" fill="#08111A" font-family="SF Pro Text, Arial, sans-serif" font-size="15" font-weight="700">Import</text>
      <rect x="1148" y="90" width="138" height="32" rx="16" fill="#1B2F42"/>
      <text x="1178" y="111" fill="#F7F1E5" font-family="SF Pro Text, Arial, sans-serif" font-size="15" font-weight="600">Open Abstract</text>
    </g>

    <g transform="translate(58 446)">
      <rect width="1340" height="138" rx="24" fill="#F7F1E5" fill-opacity="0.08" stroke="#CC8F2B" stroke-opacity="0.16"/>

      <text x="22" y="36" fill="#F7F1E5" font-family="SF Pro Text, Arial, sans-serif" font-size="28" font-weight="700">Gradient Routing for Efficient Multimodal Agents</text>
      <text x="22" y="66" fill="#9FB1C3" font-family="SF Pro Text, Arial, sans-serif" font-size="16">M. Patel, Y. Lin, K. Sato</text>

      <rect x="1148" y="18" width="136" height="34" rx="17" fill="#CC8F2B" fill-opacity="0.14"/>
      <text x="1178" y="40" fill="#F59E0B" font-family="SF Pro Text, Arial, sans-serif" font-size="15" font-weight="700">Rising 78</text>
      <text x="1168" y="74" fill="#9FB1C3" font-family="SF Pro Text, Arial, sans-serif" font-size="13">Published 1d ago</text>

      <rect x="22" y="84" width="146" height="28" rx="14" fill="#1B2F42"/>
      <text x="56" y="103" fill="#C9B48C" font-family="SF Pro Text, Arial, sans-serif" font-size="13" font-weight="600">Language Models</text>
      <rect x="178" y="84" width="76" height="28" rx="14" fill="#1B2F42"/>
      <text x="203" y="103" fill="#C9B48C" font-family="SF Pro Text, Arial, sans-serif" font-size="13" font-weight="600">Fresh</text>
      <rect x="264" y="84" width="120" height="28" rx="14" fill="#1B2F42"/>
      <text x="292" y="103" fill="#C9B48C" font-family="SF Pro Text, Arial, sans-serif" font-size="13" font-weight="600">1x library match</text>

      <text x="414" y="90" fill="#D7DEE7" font-family="SF Pro Text, Arial, sans-serif" font-size="14">
        <tspan x="414" dy="0">Discovery stays close to the rest of the reading workflow, so</tspan>
        <tspan x="414" dy="20">promising arXiv papers can move straight into your queue or library.</tspan>
      </text>

      <rect x="934" y="90" width="106" height="32" rx="16" fill="#CC8F2B"/>
      <text x="968" y="111" fill="#08111A" font-family="SF Pro Text, Arial, sans-serif" font-size="15" font-weight="700">Import</text>
      <rect x="1050" y="90" width="138" height="32" rx="16" fill="#1B2F42"/>
      <text x="1080" y="111" fill="#F7F1E5" font-family="SF Pro Text, Arial, sans-serif" font-size="15" font-weight="600">Open Abstract</text>
      <rect x="1198" y="90" width="88" height="32" rx="16" fill="#1B2F42"/>
      <text x="1228" y="111" fill="#F7F1E5" font-family="SF Pro Text, Arial, sans-serif" font-size="15" font-weight="600">PDF</text>
    </g>
  </g>

  <defs>
    <linearGradient id="bg" x1="800" y1="24" x2="800" y2="956" gradientUnits="userSpaceOnUse">
      <stop stop-color="#142434"/>
      <stop offset="1" stop-color="#09131D"/>
    </linearGradient>
    <linearGradient id="panel" x1="728" y1="92" x2="728" y2="636" gradientUnits="userSpaceOnUse">
      <stop stop-color="#1A2C3F"/>
      <stop offset="1" stop-color="#102030"/>
    </linearGradient>
  </defs>
</svg>
